<?xml version="1.0" standalone="no"?>
<!DOCTYPE svg PUBLIC "-//W3C//DTD SVG 20010904//EN"
 "http://www.w3.org/TR/2001/REC-SVG-20010904/DTD/svg10.dtd">
<svg version="1.0" xmlns="http://www.w3.org/2000/svg"
 width="1600.000000pt" height="1600.000000pt" viewBox="0 0 1600.000000 1600.000000"
 preserveAspectRatio="xMidYMid meet">
<metadata>
Created by potrace 1.14, written by Peter Selinger 2001-2017
</metadata>
<g transform="translate(0.000000,1600.000000) scale(0.100000,-0.100000)"
fill="#000000" stroke="none">
<path d="M8085 14418 c-3 -13 -29 -130 -59 -261 -29 -131 -56 -240 -59 -243
-11 -12 -602 -194 -614 -190 -7 3 -32 -4 -55 -14 -37 -17 -25 -18 22 -2 8 3
12 2 9 -1 -5 -6 -529 -188 -639 -223 -48 -15 -154 -72 -870 -468 -256 -142
-494 -279 -530 -305 -157 -115 -678 -497 -812 -595 -82 -60 -165 -127 -185
-150 -21 -23 -173 -199 -337 -392 l-299 -351 -113 -294 -114 -294 1 -415 c0
-299 4 -448 14 -535 8 -66 33 -291 56 -500 l42 -379 -39 -74 c-21 -40 -46 -79
-54 -86 -8 -8 -84 -38 -168 -67 l-152 -54 -80 -80 -79 -80 -71 -293 c-72 -303
-86 -401 -52 -386 9 4 33 9 53 12 l36 4 7 81 c4 60 24 139 74 298 l67 216 99
74 c55 41 117 87 138 102 l38 28 22 -45 22 -45 -45 -58 c-34 -44 -67 -112
-137 -288 l-92 -230 0 -296 0 -295 -106 -94 c-58 -51 -109 -89 -113 -84 -4 5
-4 82 2 172 5 90 7 165 4 168 -2 3 -23 -3 -46 -12 l-41 -16 0 -139 0 -139 -45
-90 -45 -90 0 -429 0 -428 34 -38 34 -37 6 43 c3 24 20 210 36 412 l30 368 95
107 c53 59 216 217 363 352 l268 245 -42 3 c-41 3 -41 3 -48 48 -15 113 -17
312 -7 579 l12 290 65 98 c35 53 67 97 72 97 4 0 31 -39 60 -87 l54 -87 22
-159 23 -159 -23 -252 -23 -251 60 -166 59 -167 0 -137 0 -138 -134 -266 c-87
-175 -178 -337 -264 -472 -117 -185 -143 -218 -245 -320 l-114 -114 -33 -100
c-18 -55 -34 -102 -36 -104 -2 -2 -36 11 -76 29 -40 18 -96 43 -125 56 l-51
23 19 -67 c10 -37 31 -109 46 -160 25 -90 32 -102 192 -325 91 -127 171 -232
176 -233 6 -2 19 3 29 11 19 14 16 22 -73 213 l-92 198 34 170 c26 129 43 186
70 240 35 70 36 71 164 151 70 45 202 116 293 159 l165 77 160 12 160 13 72
-36 c95 -47 112 -66 128 -146 l12 -66 -56 -92 c-52 -86 -64 -98 -206 -210
-216 -172 -232 -187 -120 -112 55 37 121 83 148 102 l47 34 123 -37 c122 -37
297 -121 1040 -505 l197 -101 37 -72 c36 -70 37 -76 49 -247 l12 -175 -54
-385 c-29 -212 -54 -402 -54 -422 0 -34 -4 -38 -67 -75 l-68 -39 -22 -249
c-12 -138 -22 -251 -22 -252 -1 -2 -142 -3 -313 -4 l-313 -1 70 -19 c39 -10
183 -56 322 -101 l251 -82 109 43 c59 23 137 53 172 67 l64 24 -7 -42 c-4 -24
-13 -52 -21 -64 -7 -11 -99 -82 -205 -158 -105 -76 -188 -142 -183 -147 4 -4
67 -30 138 -58 72 -28 128 -51 125 -52 -3 -1 -66 -7 -140 -13 l-135 -12 80
-38 c44 -21 109 -52 145 -68 l65 -30 -87 -42 c-48 -22 -88 -43 -88 -46 0 -3
245 -4 545 -2 424 2 545 5 545 15 0 6 -11 59 -24 117 -20 90 -46 152 -181 440
l-158 335 -8 190 c-4 105 -10 229 -13 277 l-6 88 28 6 c118 28 317 85 332 96
57 40 298 233 295 236 -2 2 -93 -2 -203 -8 l-199 -12 -159 88 c-272 150 -287
159 -286 167 0 5 79 98 176 208 l176 198 148 47 147 47 175 -58 c265 -88 225
-84 396 -36 82 24 154 46 161 50 7 3 57 51 113 105 69 68 100 105 100 121 0
13 34 103 76 202 59 138 105 226 207 391 71 117 132 211 134 209 2 -2 -24 -56
-57 -120 -33 -65 -56 -117 -51 -117 5 0 100 124 212 275 112 151 204 273 205
272 1 -1 -20 -218 -47 -482 -26 -264 -48 -493 -48 -510 1 -16 49 240 108 570
l107 600 88 163 c48 89 86 166 84 171 -4 12 -128 114 -132 110 -2 -2 -61 -120
-131 -261 l-128 -257 -206 -168 c-186 -151 -357 -273 -384 -273 -6 0 -18 -6
-26 -14 -9 -8 -117 -73 -240 -145 l-225 -131 -557 0 -557 0 -335 134 -335 134
-278 173 -277 173 -217 229 -217 229 -169 419 c-163 404 -170 419 -193 414
-23 -6 -23 -5 -17 57 3 35 17 232 31 438 94 1414 93 1410 170 2280 19 212 51
580 72 818 20 237 41 432 45 432 4 0 115 -64 245 -142 307 -183 730 -461 737
-485 3 -10 23 -82 46 -160 l41 -142 -87 -108 c-48 -59 -90 -110 -95 -113 -4
-3 -11 -26 -15 -50 l-6 -45 168 166 c114 112 225 209 339 296 94 71 303 231
465 354 210 160 354 262 500 351 113 69 252 155 310 190 58 35 237 145 398
243 161 98 291 180 289 181 -2 2 -169 -65 -373 -150 l-369 -153 -550 -379
c-811 -560 -762 -527 -782 -520 -10 4 -68 35 -129 69 l-112 61 -44 91 -45 90
22 86 c12 47 26 92 30 100 5 8 77 102 161 209 122 157 167 207 230 256 290
223 419 317 456 333 24 10 219 102 433 203 l390 185 378 77 c208 43 381 76
383 73 3 -2 -25 -107 -61 -233 -36 -126 -65 -232 -65 -237 0 -4 35 -7 78 -5
l77 3 17 75 c10 41 52 237 93 435 42 198 93 419 115 490 140 463 178 592 177
605 0 8 33 122 74 253 49 160 77 236 85 233 7 -3 150 -106 318 -230 169 -125
315 -232 326 -238 27 -17 25 -26 -5 -30 -20 -2 12 -26 158 -121 229 -148 1125
-734 1134 -741 1 -1 -15 -137 -37 -302 -22 -164 -40 -308 -39 -319 l0 -20 8
20 c4 11 37 134 72 274 l64 253 138 69 138 69 -8 -302 c-14 -553 -14 -561 40
-818 26 -124 64 -301 83 -395 19 -93 82 -368 140 -610 82 -341 113 -452 136
-495 23 -42 261 -443 455 -770 9 -14 -77 66 -189 178 l-204 203 -146 248 -146
247 -87 314 c-48 173 -89 317 -92 320 -3 3 -2 -20 1 -50 3 -30 13 -167 23
-305 l16 -250 114 -309 114 -309 134 -224 c73 -122 132 -223 129 -223 -3 0
-73 59 -156 130 l-152 131 -102 204 c-91 181 -113 238 -207 522 -102 308 -107
327 -161 623 -31 168 -63 357 -72 420 -8 63 -19 124 -23 134 -4 11 -12 -110
-18 -268 l-11 -288 35 -121 c18 -67 79 -284 134 -482 98 -354 101 -365 240
-690 l141 -330 144 -179 c80 -98 143 -180 141 -182 -2 -3 -98 -10 -213 -16
l-209 -10 -130 -68 c-71 -37 -202 -105 -290 -150 -88 -46 -164 -86 -169 -90
-4 -5 152 32 347 81 l356 89 375 -68 375 -69 70 -49 c38 -27 227 -162 418
-301 304 -220 376 -277 568 -453 121 -111 222 -204 225 -207 3 -3 -13 2 -35
12 -22 9 -94 38 -160 65 -66 26 -160 64 -209 84 -49 20 -90 35 -91 34 -2 -2
132 -95 296 -208 273 -187 300 -208 308 -240 5 -19 44 -206 86 -415 65 -324
89 -421 162 -655 116 -373 119 -390 24 -140 l-58 155 -37 3 c-29 3 -36 0 -36
-15 0 -10 16 -139 34 -288 19 -148 33 -271 31 -273 -2 -2 -15 34 -29 80 -101
326 -154 473 -171 476 -9 2 -21 0 -25 -5 -7 -6 42 -443 65 -583 8 -50 -10 -18
-28 50 -54 203 -151 516 -162 525 -8 5 -84 230 -169 499 -86 270 -160 494
-164 498 -8 8 -341 161 -1243 573 l-355 162 -160 7 c-87 3 -184 9 -214 12
l-55 6 -160 -202 c-88 -112 -204 -257 -257 -324 -53 -66 -95 -122 -93 -124 2
-2 60 35 129 83 l126 87 469 67 469 67 589 -249 c323 -137 591 -252 596 -256
4 -4 71 -207 148 -452 166 -521 154 -483 143 -478 -5 3 -44 22 -87 43 -43 21
-80 36 -82 34 -3 -3 -15 -89 -27 -192 l-22 -188 -179 -166 c-98 -92 -182 -168
-185 -170 -4 -1 -41 22 -82 52 -41 30 -76 53 -78 51 -1 -1 2 -62 8 -136 5 -74
10 -150 10 -169 l0 -35 -173 -74 c-94 -41 -175 -77 -180 -81 -6 -5 97 -319
185 -562 7 -21 112 -156 240 -310 125 -150 259 -315 298 -367 l70 -94 0 -89
c0 -80 -2 -91 -24 -115 -14 -15 -44 -50 -68 -79 -39 -48 -53 -57 -158 -100
-73 -29 -145 -51 -198 -58 l-82 -13 -82 86 c-45 47 -219 227 -387 399 l-304
312 -216 353 c-119 193 -300 498 -401 676 l-185 323 -160 -6 c-88 -4 -202 -9
-253 -13 l-93 -6 -181 -361 c-99 -199 -185 -364 -190 -367 -5 -4 -77 -25 -160
-49 l-151 -42 -161 41 c-88 22 -201 52 -251 65 -49 13 -91 23 -93 21 -2 -2 36
-23 85 -48 48 -25 140 -73 202 -106 63 -34 121 -61 129 -61 10 0 318 67 479
105 12 3 82 71 156 153 l135 147 140 69 140 69 160 -103 159 -104 457 -570
456 -571 224 -460 c124 -252 223 -461 221 -463 -2 -3 -91 43 -196 102 -106 58
-194 104 -196 102 -2 -2 14 -76 37 -164 22 -89 40 -165 40 -169 0 -4 -119 201
-265 457 -276 486 -301 529 -290 495 15 -46 428 -1423 437 -1458 l10 -37 543
0 542 0 47 133 c26 72 50 138 54 146 9 16 16 19 312 121 129 45 271 94 315
110 44 15 141 49 215 75 74 26 137 49 139 51 2 2 -42 120 -98 264 -56 143 -99
265 -96 270 3 5 156 222 340 482 l335 473 0 1058 0 1057 -226 488 c-125 268
-247 531 -272 585 l-45 98 -81 43 c-92 49 -230 121 -491 257 -99 51 -207 107
-240 125 l-60 33 -27 153 c-14 84 -29 172 -33 196 l-6 42 252 0 252 0 35 40
c19 23 60 54 91 70 42 21 104 76 243 217 l187 188 122 200 c67 110 162 262
211 338 l88 138 0 779 c0 753 -1 781 -21 866 -17 73 -62 170 -274 593 -243
486 -257 511 -350 631 -92 118 -134 168 -123 145 3 -5 64 -110 137 -233 128
-216 134 -229 211 -450 l80 -227 46 -330 47 -330 -12 -336 -11 -336 -69 -227
-68 -228 -102 -102 c-99 -100 -107 -105 -264 -184 l-162 -82 -220 -21 -220
-22 -180 45 -180 46 -175 105 -175 106 -202 203 -201 203 -225 530 c-126 298
-232 561 -241 600 -8 39 -27 219 -41 400 -15 182 -30 368 -34 414 -5 60 0 161
16 348 l23 264 58 117 59 116 171 91 c162 87 181 94 379 148 l208 58 225 -1
225 0 175 -101 c96 -55 191 -110 210 -121 35 -20 -84 100 -215 216 l-60 53
-200 33 -200 33 -245 -11 c-237 -11 -252 -13 -438 -57 l-192 -45 -253 135
c-186 100 -262 135 -288 135 -22 0 -132 42 -304 115 l-270 116 -270 46 -270
46 -255 -22 c-182 -16 -264 -19 -287 -12 -33 10 -68 36 -396 293 -103 82 -189
148 -192 148 -2 0 -7 -10 -10 -22z m-4715 -6709 c17 -85 30 -163 30 -174 0
-24 -157 -162 -169 -149 -16 17 16 255 43 329 15 39 34 89 42 113 9 24 18 41
20 39 3 -2 18 -73 34 -158z"/>
<path d="M8885 11615 c-38 -7 -272 -48 -519 -90 -247 -42 -458 -81 -468 -86
-29 -15 -41 -56 -26 -87 21 -42 39 -47 120 -35 296 44 1037 177 1055 189 33
21 40 60 16 92 -24 33 -72 37 -178 17z"/>
<path d="M8485 11030 c-113 -24 -213 -78 -294 -159 -179 -179 -218 -448 -98
-676 69 -131 214 -242 368 -281 94 -24 242 -15 333 20 313 120 460 484 314
781 -54 111 -148 208 -252 262 -97 50 -270 75 -371 53z"/>
<path d="M4723 9398 c-21 -23 -498 -827 -530 -892 -15 -32 -15 -36 1 -61 9
-14 27 -30 39 -34 54 -20 61 -11 340 463 164 277 267 463 267 479 0 30 -41 67
-75 67 -12 0 -31 -10 -42 -22z"/>
<path d="M7565 8738 c38 -17 75 -38 82 -47 83 -109 103 -148 123 -245 11 -55
20 -109 20 -120 0 -12 -14 -69 -32 -128 -30 -102 -36 -111 -122 -219 l-91
-113 -149 -48 -148 -47 -92 20 c-50 11 -113 25 -141 30 -27 5 -89 21 -137 35
l-87 27 -87 109 c-47 60 -88 107 -90 106 -2 -2 11 -55 28 -118 l31 -113 -21
-103 c-19 -91 -29 -115 -80 -196 l-58 -93 -114 -57 -115 -58 -75 21 c-46 13
-103 39 -147 67 -69 45 -75 52 -119 139 l-47 92 36 93 c19 51 45 117 56 146
25 64 24 64 -99 -35 l-84 -68 -23 -90 -23 -90 36 -96 c19 -53 56 -131 82 -173
l47 -77 100 -45 100 -45 90 11 90 12 169 111 c190 126 180 113 217 276 13 57
29 106 36 108 7 3 94 -10 195 -27 179 -32 186 -32 321 -22 l138 11 145 88 c86
52 182 119 233 164 l86 77 43 120 c41 118 42 123 42 249 l0 128 -66 100 c-37
55 -68 101 -68 102 -2 3 -285 63 -294 63 -4 0 24 -15 63 -32z"/>
<path d="M4800 8728 c-147 -52 -244 -136 -309 -270 -114 -231 -48 -500 160
-653 183 -135 435 -135 618 0 116 85 191 211 211 355 34 237 -107 471 -337
561 -88 34 -255 38 -343 7z"/>
<path d="M9627 8220 c-142 -154 -195 -197 -821 -675 l-118 -90 6 -245 c11
-409 12 -411 63 -95 24 148 45 270 46 271 1 0 90 56 197 123 414 260 420 264
444 306 26 45 278 472 308 523 11 17 18 32 16 32 -2 0 -65 -68 -141 -150z"/>
<path d="M9993 8045 c-15 -13 -23 -25 -17 -25 6 0 21 11 34 25 30 32 19 32
-17 0z"/>
<path d="M9834 7887 c-49 -45 -173 -158 -275 -251 -101 -93 -273 -250 -381
-349 -109 -99 -198 -187 -198 -196 0 -16 -58 -613 -80 -825 l-10 -98 -175
-305 c-96 -168 -175 -308 -175 -312 0 -3 12 9 26 27 14 18 31 29 37 25 10 -6
420 -73 424 -69 1 1 -6 125 -17 276 -17 265 -17 276 0 295 14 15 39 132 99
454 73 395 83 438 108 472 43 58 398 524 543 714 153 199 172 225 168 225 -2
-1 -44 -38 -94 -83z"/>
<path d="M8656 6532 l-109 -67 -89 -210 -90 -210 -33 -455 c-19 -250 -35 -469
-35 -485 0 -29 3 -32 58 -46 56 -15 57 -15 58 5 1 12 36 199 79 416 54 278 82
401 94 415 10 11 61 73 115 137 l97 118 -11 182 c-5 101 -10 202 -10 226 0 23
-3 42 -7 42 -5 0 -57 -31 -117 -68z"/>
<path d="M8122 5070 c0 -14 2 -19 5 -12 2 6 2 18 0 25 -3 6 -5 1 -5 -13z"/>
<path d="M3495 4756 c-65 -37 -68 -26 40 -131 l98 -96 23 -167 c13 -92 23
-170 24 -173 0 -4 -40 -17 -89 -29 l-90 -22 -6 -51 c-3 -29 -12 -171 -20 -317
-8 -146 -17 -293 -21 -326 l-5 -62 -117 -53 c-64 -29 -121 -56 -125 -60 -5 -3
-33 -119 -62 -255 -30 -137 -77 -354 -104 -483 -28 -129 -51 -236 -51 -238 0
-1 83 -3 185 -3 l186 0 -6 33 c-6 36 -93 724 -102 803 l-6 51 94 7 c52 4 117
9 146 12 l51 6 6 42 c3 22 13 196 22 386 8 190 19 365 22 389 l7 44 240 -233
c470 -457 509 -495 489 -470 -11 14 -47 55 -80 91 -57 62 -63 74 -118 228
l-58 163 147 148 147 147 -93 58 c-52 32 -168 103 -259 158 -158 95 -172 106
-325 258 -88 87 -162 159 -165 158 -3 -1 -14 -6 -25 -13z"/>
<path d="M7015 4398 c-8 -22 -103 -453 -101 -455 1 -2 24 55 50 125 36 97 55
133 79 154 39 34 49 35 47 6 -1 -13 -2 -454 -1 -980 l1 -958 45 0 45 0 0 789
c0 434 5 891 11 1015 l10 225 -33 45 c-32 44 -34 45 -91 46 -37 0 -59 -4 -62
-12z"/>
<path d="M8537 3915 c-32 -513 -78 -1199 -81 -1202 -3 -3 -7 26 -61 502 -20
171 -39 333 -44 360 l-9 50 -1 -40 c-1 -22 -10 -267 -21 -545 -11 -278 -20
-527 -20 -555 0 -27 -4 -45 -8 -40 -5 6 -35 82 -67 170 l-60 160 -7 -55 c-4
-30 -10 -118 -14 -195 -7 -156 -7 -156 -68 -43 l-30 53 -12 -95 c-7 -52 -15
-107 -18 -122 l-5 -28 310 0 311 0 -6 148 c-4 81 -13 280 -21 442 -8 162 -21
462 -30 665 -9 204 -19 397 -23 430 -7 58 -8 55 -15 -60z"/>
<path d="M6878 3430 c-4 -19 -12 -226 -18 -460 -6 -234 -13 -482 -17 -552 l-6
-128 52 0 53 0 -6 88 c-3 48 -11 197 -17 332 -29 643 -36 753 -41 720z"/>
<path d="M3785 2833 c11 -11 126 -98 255 -193 129 -96 288 -214 353 -262 l118
-88 260 2 259 3 -217 191 c-120 105 -219 190 -221 189 -2 -2 33 -52 76 -112
44 -59 79 -109 78 -110 -1 -2 -56 19 -122 46 -478 195 -841 344 -849 348 -5 3
-1 -3 10 -14z"/>
<path d="M4007 2463 c26 -38 64 -92 85 -120 l39 -53 157 1 157 0 -235 119
c-129 65 -239 119 -243 119 -4 1 13 -29 40 -66z"/>
</g>
</svg>
